<svg width="151" height="44" viewBox="0 0 151 44" fill="none" xmlns="http://www.w3.org/2000/svg">
<rect x="122" width="29" height="29" rx="6" fill="#6366F1"/>
<rect x="107" y="15" width="29" height="29" rx="6" fill="#3730A3"/>
<path d="M72.2656 18H71.2598C71.1426 18.5534 70.9603 19.0742 70.7129 19.5625C70.472 20.0508 70.153 20.5065 69.7559 20.9297C69.3652 21.3594 68.916 21.7272 68.4082 22.0332C67.9004 22.3392 67.3079 22.5801 66.6309 22.7559C65.9538 22.9316 65.2246 23.0195 64.4434 23.0195H64.375L64.2773 22.7754L63.7402 21.4473L63.5352 20.9395C65.0586 20.8027 66.2695 20.4805 67.168 19.9727C68.0729 19.4648 68.6654 18.8073 68.9453 18H68.2031C66.8164 18 65.778 17.7526 65.0879 17.2578C64.4043 16.7565 64.0625 15.9655 64.0625 14.8848C64.069 14.4421 64.1243 14.0026 64.2285 13.5664C64.3327 13.1237 64.4889 12.7038 64.6973 12.3066C64.9056 11.9095 65.153 11.5579 65.4395 11.252C65.7259 10.946 66.0645 10.7051 66.4551 10.5293C66.8457 10.347 67.2624 10.2559 67.7051 10.2559C68.1934 10.2559 68.6393 10.3503 69.043 10.5391C69.4466 10.7214 69.7884 10.972 70.0684 11.291C70.3483 11.61 70.5859 11.9941 70.7812 12.4434C70.9831 12.8861 71.1361 13.3581 71.2402 13.8594C71.3444 14.3607 71.4095 14.8945 71.4355 15.4609H72.2656C72.3828 15.4609 72.4414 15.8255 72.4414 16.5547V16.8867C72.4414 17.6289 72.3828 18 72.2656 18ZM66.3574 14.5918C66.3574 14.9889 66.4941 15.2493 66.7676 15.373C67.0475 15.4902 67.5358 15.5488 68.2324 15.5488C68.4993 15.5488 68.7956 15.5423 69.1211 15.5293C69.1081 15.002 69.0625 14.556 68.9844 14.1914C68.9062 13.8203 68.7988 13.5306 68.6621 13.3223C68.5319 13.1074 68.3822 12.9544 68.2129 12.8633C68.0436 12.7656 67.8516 12.7168 67.6367 12.7168C67.3112 12.7168 67.015 12.9121 66.748 13.3027C66.4876 13.6934 66.3574 14.123 66.3574 14.5918ZM72.168 15.4609H74.8926C75.6673 15.4609 76.2174 15.3503 76.543 15.1289C76.8685 14.901 77.0312 14.5625 77.0312 14.1133C77.0312 13.7812 76.8457 13.4069 76.4746 12.9902L72.6758 8.74219L72.5684 8.61523C72.5684 8.58268 72.5684 8.54036 72.5684 8.48828C72.5749 8.4362 72.5846 8.32878 72.5977 8.16602C72.6172 8.00326 72.6367 7.85026 72.6562 7.70703C72.6758 7.55729 72.7051 7.39128 72.7441 7.20898C72.7832 7.02669 72.8223 6.86719 72.8613 6.73047C72.9069 6.58724 72.9622 6.46354 73.0273 6.35938C73.099 6.2487 73.1706 6.18034 73.2422 6.1543L80.3418 3.48828V6.02734L75.2051 7.96094L78.2129 11.291C78.9486 12.1048 79.3164 13.0098 79.3164 14.0059C79.3164 15.3145 78.9062 16.3073 78.0859 16.9844C77.2656 17.6615 76.0905 18 74.5605 18H72.168C72.0638 18 71.9792 17.9674 71.9141 17.9023C71.8424 17.8372 71.7936 17.7428 71.7676 17.6191C71.735 17.4889 71.7155 17.375 71.709 17.2773C71.7025 17.1732 71.6992 17.043 71.6992 16.8867V16.5547C71.6992 16.3464 71.7057 16.1738 71.7188 16.0371C71.7318 15.9004 71.7773 15.7702 71.8555 15.6465C71.9271 15.5228 72.0312 15.4609 72.168 15.4609ZM80.332 2.39453L73.3398 5.04102V3.6543L80.332 1.01758V2.39453ZM89.5703 18H88.5645C88.4473 18.5534 88.265 19.0742 88.0176 19.5625C87.7767 20.0508 87.4577 20.5065 87.0605 20.9297C86.6699 21.3594 86.2207 21.7272 85.7129 22.0332C85.2051 22.3392 84.6126 22.5801 83.9355 22.7559C83.2585 22.9316 82.5293 23.0195 81.748 23.0195H81.6797L81.582 22.7754L81.0449 21.4473L80.8398 20.9395C82.3633 20.8027 83.5742 20.4805 84.4727 19.9727C85.3776 19.4648 85.9701 18.8073 86.25 18H85.5078C84.1211 18 83.0827 17.7526 82.3926 17.2578C81.709 16.7565 81.3672 15.9655 81.3672 14.8848C81.3737 14.4421 81.429 14.0026 81.5332 13.5664C81.6374 13.1237 81.7936 12.7038 82.002 12.3066C82.2103 11.9095 82.4577 11.5579 82.7441 11.252C83.0306 10.946 83.3691 10.7051 83.7598 10.5293C84.1504 10.347 84.5671 10.2559 85.0098 10.2559C85.498 10.2559 85.944 10.3503 86.3477 10.5391C86.7513 10.7214 87.0931 10.972 87.373 11.291C87.653 11.61 87.8906 11.9941 88.0859 12.4434C88.2878 12.8861 88.4408 13.3581 88.5449 13.8594C88.6491 14.3607 88.7142 14.8945 88.7402 15.4609H89.5703C89.6875 15.4609 89.7461 15.8255 89.7461 16.5547V16.8867C89.7461 17.6289 89.6875 18 89.5703 18ZM83.6621 14.5918C83.6621 14.9889 83.7988 15.2493 84.0723 15.373C84.3522 15.4902 84.8405 15.5488 85.5371 15.5488C85.804 15.5488 86.1003 15.5423 86.4258 15.5293C86.4128 15.002 86.3672 14.556 86.2891 14.1914C86.2109 13.8203 86.1035 13.5306 85.9668 13.3223C85.8366 13.1074 85.6868 12.9544 85.5176 12.8633C85.3483 12.7656 85.1562 12.7168 84.9414 12.7168C84.6159 12.7168 84.3197 12.9121 84.0527 13.3027C83.7923 13.6934 83.6621 14.123 83.6621 14.5918ZM89.4727 15.4609H89.8828C89.9219 15.4609 89.9609 15.4609 90 15.4609C90.6641 15.4349 91.1458 15.2233 91.4453 14.8262C91.7448 14.429 91.8783 13.7975 91.8457 12.9316L91.543 5.10938L91.8262 5.02148L93.5254 4.47461L94.0332 4.30859V4.8457V13.0586C94.0332 14.6016 93.7012 15.8125 93.0371 16.6914C92.3796 17.5638 91.3574 18 89.9707 18H89.4727C89.3685 18 89.2839 17.9674 89.2188 17.9023C89.1471 17.8372 89.0983 17.7428 89.0723 17.6191C89.0397 17.4889 89.0202 17.375 89.0137 17.2773C89.0072 17.1732 89.0039 17.043 89.0039 16.8867V16.5547C89.0039 16.3464 89.0104 16.1738 89.0234 16.0371C89.0365 15.9004 89.082 15.7702 89.1602 15.6465C89.2318 15.5228 89.3359 15.4609 89.4727 15.4609Z" fill="#3730A3"/>
<path d="M1.86523 38.9121C1.86523 39.6035 2.08398 40.1309 2.52148 40.4941C2.96289 40.8613 3.62695 41.0449 4.51367 41.0449C4.86133 41.0449 5.20508 41.0234 5.54492 40.9805C5.88867 40.9375 6.20312 40.877 6.48828 40.7988C6.77344 40.7246 7.00391 40.625 7.17969 40.5C7.35547 40.375 7.44336 40.2383 7.44336 40.0898C7.44336 40.0625 7.43555 40.0371 7.41992 40.0137C7.4043 39.9941 7.37695 39.9727 7.33789 39.9492C7.29883 39.9297 7.26562 39.9141 7.23828 39.9023C7.21094 39.8906 7.16602 39.873 7.10352 39.8496C7.04492 39.8262 7.00195 39.8086 6.97461 39.7969L5.45117 39.2109C5.4082 39.1953 5.38477 39.1211 5.38086 38.9883C5.37695 38.8516 5.38867 38.707 5.41602 38.5547C5.44336 38.3984 5.49023 38.2578 5.55664 38.1328C5.62305 38.0078 5.69531 37.9453 5.77344 37.9453H8.63281C8.70312 37.9453 8.73828 38.0859 8.73828 38.3672V38.5664C8.73828 38.8555 8.70312 39 8.63281 39H6.98047L7.48438 39.1758C7.60156 39.2188 7.70117 39.2598 7.7832 39.2988C7.86914 39.3418 7.95898 39.3965 8.05273 39.4629C8.14648 39.5293 8.2168 39.6094 8.26367 39.7031C8.31445 39.8008 8.33984 39.9102 8.33984 40.0312C8.33984 40.332 8.25977 40.6016 8.09961 40.8398C7.93945 41.0781 7.73242 41.2715 7.47852 41.4199C7.22461 41.5723 6.92578 41.6973 6.58203 41.7949C6.24219 41.8965 5.90234 41.9668 5.5625 42.0059C5.22266 42.0488 4.87695 42.0703 4.52539 42.0703C3.40039 42.0703 2.51367 41.7969 1.86523 41.25C1.2168 40.7031 0.892578 39.9219 0.892578 38.9062C0.892578 38.5781 0.9375 38.2031 1.02734 37.7812C1.11719 37.3594 1.25586 36.9473 1.44336 36.5449L2.30469 36.8965C2.01172 37.5605 1.86523 38.2324 1.86523 38.9121ZM9.32422 39H8.62109C8.58203 39 8.55469 38.9668 8.53906 38.9004C8.52734 38.834 8.52148 38.7227 8.52148 38.5664V38.3672C8.52148 38.2148 8.52734 38.1074 8.53906 38.0449C8.55469 37.9785 8.58203 37.9453 8.62109 37.9453H9.32422C9.35547 37.9453 9.37109 38.0859 9.37109 38.3672V38.5664C9.37109 38.8555 9.35547 39 9.32422 39ZM13.3906 39H13.1973C12.9082 39 12.6582 38.9414 12.4473 38.8242C12.2363 38.7031 12.0059 38.5078 11.7559 38.2383C11.2988 38.7461 10.709 39 9.98633 39H9.19531C9.11328 39 9.05859 38.9668 9.03125 38.9004C9 38.8301 8.98438 38.7188 8.98438 38.5664V38.3672C8.98438 38.2148 8.99805 38.1074 9.02539 38.0449C9.05273 37.9785 9.10938 37.9453 9.19531 37.9453H10.0098C10.8379 37.9453 11.2617 37.5801 11.2812 36.8496L11.3105 35.5898L12.2129 35.4375L12.2656 36.8496C12.2773 37.2051 12.3672 37.4766 12.5352 37.6641C12.707 37.8516 12.9336 37.9453 13.2148 37.9453H13.3906C13.4609 37.9453 13.4961 38.0859 13.4961 38.3672V38.5664C13.4961 38.8555 13.4609 39 13.3906 39ZM10.2559 40.0254L11.1055 40.8809L10.2559 41.7305L9.40039 40.8809L10.2559 40.0254ZM13.6191 39H13.3438C13.25 39 13.1875 38.9668 13.1562 38.9004C13.125 38.8301 13.1094 38.7188 13.1094 38.5664V38.3672C13.1094 38.2148 13.125 38.1074 13.1562 38.0449C13.1836 37.9785 13.2422 37.9453 13.332 37.9453H13.6426C13.8418 37.9453 13.9961 37.9453 14.1055 37.9453C14.2188 37.9414 14.3418 37.9355 14.4746 37.9277C14.6074 37.916 14.707 37.9004 14.7734 37.8809C14.8438 37.8613 14.918 37.834 14.9961 37.7988C15.0742 37.7598 15.1289 37.7168 15.1602 37.6699C15.1953 37.6191 15.2285 37.5547 15.2598 37.4766C15.2949 37.3984 15.3164 37.3105 15.3242 37.2129C15.3359 37.1152 15.3418 37 15.3418 36.8672C15.3418 36.6484 15.3184 36.377 15.2715 36.0527C15.2285 35.7285 15.1855 35.459 15.1426 35.2441L15.0781 34.9219L15.9863 34.6523C16.0098 34.7227 16.0371 34.8184 16.0684 34.9395C16.1035 35.0605 16.1484 35.2891 16.2031 35.625C16.2578 35.9609 16.2852 36.2754 16.2852 36.5684C16.2852 37.4746 16.0898 38.1074 15.6992 38.4668C15.3125 38.8223 14.6191 39 13.6191 39ZM15.166 31.9746L16.0156 32.8301L15.166 33.6797L14.3105 32.8301L15.166 31.9746ZM19.9883 37.9453C20.0586 37.9453 20.0938 38.0859 20.0938 38.3672V38.5664C20.0938 38.8555 20.0586 39 19.9883 39H19.8711C19.4883 39 19.166 38.9473 18.9043 38.8418C18.6465 38.7324 18.4414 38.5664 18.2891 38.3438C18.1367 38.1211 18.0254 37.8613 17.9551 37.5645C17.8887 37.2637 17.8496 36.9004 17.8379 36.4746L17.668 31.207L18.6816 30.8789V36.3926C18.6816 36.916 18.7754 37.3066 18.9629 37.5645C19.1543 37.8184 19.4551 37.9453 19.8652 37.9453H19.9883ZM27.4238 35.9238L27.2832 36.7852C27.2129 36.793 27.1191 36.8203 27.002 36.8672C26.8848 36.9141 26.7246 36.9883 26.5215 37.0898C26.3223 37.1875 26.1113 37.293 25.8887 37.4062C25.666 37.5195 25.3594 37.6738 24.9688 37.8691C24.5781 38.0645 24.1914 38.2559 23.8086 38.4434C23.0352 38.8145 21.9043 39 20.416 39H19.9297C19.7422 39 19.6484 38.8555 19.6484 38.5664V38.3672C19.6484 38.0859 19.7422 37.9453 19.9297 37.9453H20.3633C21.5938 37.9453 22.4961 37.8418 23.0703 37.6348C23.8555 37.3496 24.7227 36.9785 25.6719 36.5215C25.3984 36.4277 24.8867 36.2344 24.1367 35.9414C23.4648 35.6758 23.0469 35.5254 22.8828 35.4902C22.7656 35.4629 22.6543 35.4492 22.5488 35.4492C22.1152 35.4492 21.6602 35.7637 21.1836 36.3926L20.5098 35.8711C20.8496 35.3945 21.1797 35.0332 21.5 34.7871C21.8242 34.541 22.1875 34.418 22.5898 34.418C22.7148 34.418 22.8398 34.4297 22.9648 34.4531C23.0938 34.4727 23.2324 34.5098 23.3809 34.5645C23.5332 34.6191 23.6582 34.666 23.7559 34.7051C23.8574 34.7441 24.0059 34.8086 24.2012 34.8984C24.3965 34.9844 24.5391 35.0469 24.6289 35.0859C24.7227 35.125 24.8535 35.1836 25.0215 35.2617C25.1934 35.3359 25.3379 35.4004 25.4551 35.4551C25.5723 35.5059 25.7148 35.5645 25.8828 35.6309C26.0508 35.6973 26.2012 35.75 26.334 35.7891C26.4707 35.8281 26.6172 35.8613 26.7734 35.8887C26.9297 35.916 27.0762 35.9297 27.2129 35.9297C27.2832 35.9297 27.3535 35.9277 27.4238 35.9238ZM24.0371 40.084L24.8867 40.9395L24.0371 41.7891L23.1816 40.9395L24.0371 40.084ZM34.1504 37.9629H34.3203H35.1641H35.6387C35.9004 37.9629 36.082 37.9551 36.1836 37.9395C36.2891 37.9238 36.373 37.8945 36.4355 37.8516C36.5059 37.8086 36.5723 37.7266 36.6348 37.6055C36.6973 37.4844 36.7285 37.3672 36.7285 37.2539C36.7285 37.0898 36.6367 36.9141 36.4531 36.7266C36.2695 36.5352 36.041 36.375 35.7676 36.2461C35.4941 36.1172 35.2383 36.0527 35 36.0527C34.6172 36.0527 34.3691 36.2461 34.2559 36.6328C34.1973 36.8359 34.1641 37.2266 34.1562 37.8047C34.1523 37.8672 34.1504 37.9199 34.1504 37.9629ZM35.6445 39H33.752C33.4004 39 33.1387 39.1074 32.9668 39.3223C32.7949 39.5371 32.709 39.877 32.709 40.3418C32.709 40.4355 32.7109 40.5059 32.7148 40.5527L32.8379 43.3008L31.8887 43.6875V40.2656C31.8887 39.6641 32.0098 39.1543 32.252 38.7363C32.498 38.3184 32.834 38.0703 33.2598 37.9922C33.252 37.8125 33.248 37.709 33.248 37.6816C33.248 37.2793 33.2812 36.916 33.3477 36.5918C33.418 36.2676 33.5234 35.9824 33.6641 35.7363C33.8086 35.4863 33.998 35.293 34.2324 35.1562C34.4707 35.0195 34.7461 34.9512 35.0586 34.9512C35.3984 34.9512 35.7715 35.0645 36.1777 35.291C36.5879 35.5137 36.9355 35.793 37.2207 36.1289C37.5059 36.4609 37.6484 36.7734 37.6484 37.0664C37.6484 37.2773 37.5879 37.5391 37.4668 37.8516C37.3457 38.1602 37.2168 38.3906 37.0801 38.543C36.9316 38.7031 36.75 38.8203 36.5352 38.8945C36.3242 38.9648 36.0273 39 35.6445 39ZM37.2441 42.0117L36.9219 41.2148C37.9531 41.1406 38.7676 40.8574 39.3652 40.3652C39.9629 39.877 40.2617 39.1973 40.2617 38.3262C40.2617 37.959 40.1328 37.2949 39.875 36.334L40.7539 35.8828C41.0703 36.7812 41.2285 37.5527 41.2285 38.1973C41.2285 39.3418 40.8691 40.2617 40.1504 40.957C39.4316 41.6562 38.4629 42.0078 37.2441 42.0117ZM40.0566 32.9941L40.9062 33.8496L40.0566 34.6992L39.2012 33.8496L40.0566 32.9941ZM42.6055 31.1953L43.6191 30.873V38.9883H42.8574L42.6055 31.1953ZM45.0137 42.0117L44.6914 41.2148C45.1875 41.1875 45.6406 41.1055 46.0508 40.9688C46.4609 40.832 46.7988 40.6602 47.0645 40.4531C47.3301 40.2461 47.543 40.0195 47.7031 39.7734C47.8633 39.5273 47.9668 39.2695 48.0137 39H47.2695C46.4766 39 45.9023 38.873 45.5469 38.6191C45.1953 38.3613 45.0195 37.9434 45.0195 37.3652C45.0234 36.9395 45.1035 36.5352 45.2598 36.1523C45.4199 35.7656 45.6504 35.4473 45.9512 35.1973C46.2559 34.9473 46.5957 34.8223 46.9707 34.8223C47.4082 34.8223 47.7793 34.9629 48.084 35.2441C48.3887 35.5254 48.6113 35.8945 48.752 36.3516C48.8926 36.8086 48.9707 37.3398 48.9863 37.9453H49.707C49.7773 37.9453 49.8125 38.0859 49.8125 38.3672V38.5664C49.8125 38.8555 49.7773 39 49.707 39H48.9102C48.8438 39.4102 48.7148 39.791 48.5234 40.1426C48.332 40.498 48.0801 40.8164 47.7676 41.0977C47.4551 41.3828 47.0625 41.6055 46.5898 41.7656C46.1172 41.9297 45.5918 42.0117 45.0137 42.0117ZM45.9277 37.1895C45.9277 37.3301 45.9512 37.4512 45.998 37.5527C46.0488 37.6543 46.1113 37.7344 46.1855 37.793C46.2637 37.8477 46.3652 37.8906 46.4902 37.9219C46.6191 37.9531 46.7422 37.9746 46.8594 37.9863C46.9766 37.9941 47.1191 37.998 47.2871 37.998C47.5098 37.998 47.7676 37.9902 48.0605 37.9746C48.0605 36.5449 47.6836 35.8301 46.9297 35.8301C46.7383 35.8301 46.5645 35.9023 46.4082 36.0469C46.252 36.1875 46.1328 36.3613 46.0508 36.5684C45.9688 36.7715 45.9277 36.9785 45.9277 37.1895ZM49.6484 37.9453H49.8945C50.8789 37.9453 51.3496 37.3594 51.3066 36.1875L51.1309 31.2012L52.1504 30.873V36.2695C52.1504 38.0898 51.416 39 49.9473 39H49.6484C49.4609 39 49.3672 38.8555 49.3672 38.5664V38.3672C49.3672 38.0859 49.4609 37.9453 49.6484 37.9453ZM58.8652 35.8184C58.5605 35.8184 58.3027 35.9648 58.0918 36.2578C57.8809 36.5469 57.7754 36.8828 57.7754 37.2656C57.7754 37.5352 57.8574 37.7344 58.0215 37.8633C58.1855 37.9922 58.4453 38.0566 58.8008 38.0566C58.9062 38.0566 59.0078 38.0508 59.1055 38.0391C59.207 38.0273 59.293 38.0137 59.3633 37.998C59.4375 37.9785 59.5059 37.957 59.5684 37.9336C59.6348 37.9102 59.6895 37.8867 59.7324 37.8633C59.7793 37.8398 59.8184 37.8203 59.8496 37.8047C59.8809 37.7852 59.9023 37.7695 59.9141 37.7578L59.9375 37.7402C59.9375 37.1504 59.8477 36.6836 59.668 36.3398C59.4922 35.9922 59.2246 35.8184 58.8652 35.8184ZM58.8594 34.8105C59.4844 34.8105 59.9766 35.0859 60.3359 35.6367C60.6953 36.1875 60.875 36.9727 60.875 37.9922C60.875 38.6367 60.7793 39.2129 60.5879 39.7207C60.4004 40.2285 60.1328 40.6484 59.7852 40.9805C59.4375 41.3164 59.0176 41.5723 58.5254 41.748C58.0371 41.9238 57.4941 42.0117 56.8965 42.0117L56.5742 41.2148C57.5547 41.1562 58.3281 40.9102 58.8945 40.4766C59.4609 40.0469 59.7949 39.4766 59.8965 38.7656C59.8652 38.7852 59.8203 38.8105 59.7617 38.8418C59.7031 38.8691 59.5742 38.9082 59.375 38.959C59.1758 39.0059 58.9648 39.0293 58.7422 39.0293C58.1484 39.0293 57.6895 38.8867 57.3652 38.6016C57.0449 38.3125 56.8848 37.9121 56.8848 37.4004C56.8848 36.9395 56.9668 36.5117 57.1309 36.1172C57.2988 35.7227 57.5352 35.4062 57.8398 35.168C58.1445 34.9297 58.4844 34.8105 58.8594 34.8105ZM72.0488 36.8027C72.0488 37.2363 72.1523 37.5332 72.3594 37.6934C72.5664 37.8535 72.9004 37.9355 73.3613 37.9395L73.4902 37.9453C73.5605 37.9453 73.5957 38.0859 73.5957 38.3672V38.5664C73.5957 38.8555 73.5605 39 73.4902 39L73.3848 38.9941C72.7441 38.9824 72.2969 38.8535 72.043 38.6074C71.9766 40.7754 70.8633 41.8594 68.7031 41.8594C67.6719 41.8594 66.8574 41.5801 66.2598 41.0215C65.6621 40.4668 65.3633 39.6992 65.3633 38.7188C65.3633 38 65.5625 37.1875 65.9609 36.2812L66.834 36.6035C66.5215 37.3691 66.3652 38.041 66.3652 38.6191C66.3652 39.3184 66.5703 39.8633 66.9805 40.2539C67.3945 40.6484 67.9746 40.8457 68.7207 40.8457C70.3965 40.8457 71.2168 39.9531 71.1816 38.168L71.041 31.1777L72.0488 30.8789V36.8027ZM74.1289 39H73.4434C73.3496 39 73.2871 38.9668 73.2559 38.9004C73.2246 38.8301 73.209 38.7188 73.209 38.5664V38.3672C73.209 38.2148 73.2246 38.1074 73.2559 38.0449C73.2832 37.9785 73.3418 37.9453 73.4316 37.9453H74.1523C74.3516 37.9453 74.5059 37.9453 74.6152 37.9453C74.7285 37.9414 74.8516 37.9355 74.9844 37.9277C75.1172 37.916 75.2168 37.9004 75.2832 37.8809C75.3535 37.8613 75.4277 37.834 75.5059 37.7988C75.584 37.7598 75.6387 37.7168 75.6699 37.6699C75.7051 37.6191 75.7383 37.5547 75.7695 37.4766C75.8047 37.3984 75.8262 37.3105 75.834 37.2129C75.8457 37.1152 75.8516 37 75.8516 36.8672C75.8516 36.6484 75.8281 36.377 75.7812 36.0527C75.7383 35.7285 75.6953 35.459 75.6523 35.2441L75.5879 34.9219L76.4961 34.6523C76.5195 34.7227 76.5469 34.8184 76.5781 34.9395C76.6133 35.0605 76.6582 35.2891 76.7129 35.625C76.7676 35.9609 76.7949 36.2754 76.7949 36.5684C76.7949 37.4746 76.5996 38.1074 76.209 38.4668C75.8223 38.8223 75.1289 39 74.1289 39ZM75.7754 40.0664L76.5898 40.8809L75.7754 41.6895L74.9668 40.8809L75.7754 40.0664ZM74.0117 40.0664L74.8262 40.8809L74.0117 41.6895L73.2031 40.8809L74.0117 40.0664ZM80.4922 37.9453C80.5625 37.9453 80.5977 38.0859 80.5977 38.3672V38.5664C80.5977 38.8555 80.5625 39 80.4922 39H80.375C79.9922 39 79.6699 38.9473 79.4082 38.8418C79.1504 38.7324 78.9453 38.5664 78.793 38.3438C78.6406 38.1211 78.5293 37.8613 78.459 37.5645C78.3926 37.2637 78.3535 36.9004 78.3418 36.4746L78.1719 31.207L79.1855 30.8789V36.3926C79.1855 36.916 79.2793 37.3066 79.4668 37.5645C79.6582 37.8184 79.959 37.9453 80.3691 37.9453H80.4922ZM80.7207 39H80.4453C80.3516 39 80.2891 38.9668 80.2578 38.9004C80.2266 38.8301 80.2109 38.7188 80.2109 38.5664V38.3672C80.2109 38.2148 80.2266 38.1074 80.2578 38.0449C80.2852 37.9785 80.3438 37.9453 80.4336 37.9453H80.7441C80.9434 37.9453 81.0977 37.9453 81.207 37.9453C81.3203 37.9414 81.4434 37.9355 81.5762 37.9277C81.709 37.916 81.8086 37.9004 81.875 37.8809C81.9453 37.8613 82.0195 37.834 82.0977 37.7988C82.1758 37.7598 82.2305 37.7168 82.2617 37.6699C82.2969 37.6191 82.3301 37.5547 82.3613 37.4766C82.3965 37.3984 82.418 37.3105 82.4258 37.2129C82.4375 37.1152 82.4434 37 82.4434 36.8672C82.4434 36.6484 82.4199 36.377 82.373 36.0527C82.3301 35.7285 82.2871 35.459 82.2441 35.2441L82.1797 34.9219L83.0879 34.6523C83.1113 34.7227 83.1387 34.8184 83.1699 34.9395C83.2051 35.0605 83.25 35.2891 83.3047 35.625C83.3594 35.9609 83.3867 36.2754 83.3867 36.5684C83.3867 37.4746 83.1914 38.1074 82.8008 38.4668C82.4141 38.8223 81.7207 39 80.7207 39ZM81.4824 40.0254L82.332 40.8809L81.4824 41.7305L80.627 40.8809L81.4824 40.0254ZM84.5527 42.0117L84.2305 41.2148C84.7266 41.1875 85.1797 41.1055 85.5898 40.9688C86 40.832 86.3379 40.6602 86.6035 40.4531C86.8691 40.2461 87.082 40.0195 87.2422 39.7734C87.4023 39.5273 87.5059 39.2695 87.5527 39H86.8086C86.0156 39 85.4414 38.873 85.0859 38.6191C84.7344 38.3613 84.5586 37.9434 84.5586 37.3652C84.5625 36.9395 84.6426 36.5352 84.7988 36.1523C84.959 35.7656 85.1895 35.4473 85.4902 35.1973C85.7949 34.9473 86.1348 34.8223 86.5098 34.8223C86.9473 34.8223 87.3184 34.9629 87.623 35.2441C87.9277 35.5254 88.1504 35.8945 88.291 36.3516C88.4316 36.8086 88.5098 37.3398 88.5254 37.9453H89.2461C89.3164 37.9453 89.3516 38.0859 89.3516 38.3672V38.5664C89.3516 38.8555 89.3164 39 89.2461 39H88.4492C88.3828 39.4102 88.2539 39.791 88.0625 40.1426C87.8711 40.498 87.6191 40.8164 87.3066 41.0977C86.9941 41.3828 86.6016 41.6055 86.1289 41.7656C85.6562 41.9297 85.1309 42.0117 84.5527 42.0117ZM85.4668 37.1895C85.4668 37.3301 85.4902 37.4512 85.5371 37.5527C85.5879 37.6543 85.6504 37.7344 85.7246 37.793C85.8027 37.8477 85.9043 37.8906 86.0293 37.9219C86.1582 37.9531 86.2812 37.9746 86.3984 37.9863C86.5156 37.9941 86.6582 37.998 86.8262 37.998C87.0488 37.998 87.3066 37.9902 87.5996 37.9746C87.5996 36.5449 87.2227 35.8301 86.4688 35.8301C86.2773 35.8301 86.1035 35.9023 85.9473 36.0469C85.791 36.1875 85.6719 36.3613 85.5898 36.5684C85.5078 36.7715 85.4668 36.9785 85.4668 37.1895ZM92.8086 39.2812C92.6641 39.2812 92.5176 39.2637 92.3691 39.2285C92.2207 39.1973 92.082 39.1543 91.9531 39.0996C91.8281 39.0488 91.707 38.9922 91.5898 38.9297C91.4727 38.8633 91.3672 38.7988 91.2734 38.7363C91.1836 38.6699 91.1035 38.6113 91.0332 38.5605C90.9668 38.5059 90.916 38.4609 90.8809 38.4258L90.8281 38.3789C90.6992 38.5078 90.6055 38.5996 90.5469 38.6543C90.4883 38.709 90.4062 38.7695 90.3008 38.8359C90.1992 38.9023 90.0918 38.9473 89.9785 38.9707C89.8652 38.9902 89.7285 39 89.5684 39H89.1875C89.0977 39 89.0391 38.9668 89.0117 38.9004C88.9805 38.834 88.9648 38.7227 88.9648 38.5664V38.3672C88.9648 38.2148 88.9805 38.1074 89.0117 38.0449C89.0391 37.9785 89.0977 37.9453 89.1875 37.9453H89.6621C89.9434 37.9453 90.1523 37.8066 90.2891 37.5293C90.668 36.7598 90.957 36.207 91.1562 35.8711C91.5352 35.2461 92.002 34.9336 92.5566 34.9336C92.916 34.9336 93.2402 35.0586 93.5293 35.3086C93.8184 35.5586 94.0391 35.8828 94.1914 36.2812C94.3477 36.6758 94.4258 37.0957 94.4258 37.541C94.4258 37.877 94.3613 38.1758 94.2324 38.4375C94.1035 38.6992 93.9141 38.9043 93.6641 39.0527C93.418 39.2051 93.1328 39.2812 92.8086 39.2812ZM92.7559 38.332C92.9746 38.332 93.1523 38.2578 93.2891 38.1094C93.4297 37.957 93.5 37.7617 93.5 37.5234C93.5 37.3281 93.459 37.1152 93.377 36.8848C93.2949 36.6504 93.1738 36.4453 93.0137 36.2695C92.8535 36.0898 92.6816 36 92.498 36C92.2637 36 92.0449 36.1641 91.8418 36.4922C91.6191 36.8477 91.4277 37.2051 91.2676 37.5645C91.8457 38.0762 92.3418 38.332 92.7559 38.332Z" fill="#6366F1"/>
</svg>
