<svg width="40" height="40" viewBox="0 0 40 40" fill="none" xmlns="http://www.w3.org/2000/svg">
<path fill-rule="evenodd" clip-rule="evenodd" d="M12.6303 4.85323C8.01509 5.92394 4.58325 10.0557 4.58325 15C4.58325 15.6904 4.02361 16.25 3.33325 16.25C2.6429 16.25 2.08325 15.6904 2.08325 15C2.08325 7.85964 7.85956 2.08333 14.9999 2.08333C15.4503 2.08333 15.8658 2.32557 16.0877 2.71746C16.3095 3.10934 16.3035 3.59028 16.0718 3.97645L14.3218 6.89311C13.9666 7.48509 13.1988 7.67705 12.6068 7.32187C12.0148 6.96669 11.8229 6.19886 12.1781 5.60689L12.6303 4.85323ZM36.6666 23.75C37.3569 23.75 37.9166 24.3096 37.9166 25C37.9166 32.1404 32.1403 37.9167 24.9999 37.9167C24.5496 37.9167 24.1341 37.6744 23.9122 37.2825C23.6903 36.8907 23.6964 36.4097 23.928 36.0236L25.678 33.1069C26.0332 32.5149 26.801 32.3229 27.393 32.6781C27.985 33.0333 28.1769 33.8011 27.8218 34.3931L27.3696 35.1468C31.9847 34.0761 35.4166 29.9443 35.4166 25C35.4166 24.3096 35.9762 23.75 36.6666 23.75Z" fill="#6366F1"/>
<path d="M27.3335 13.6832L21.0669 10.2999C20.4002 9.94989 19.6168 9.94989 18.9502 10.2999L12.6835 13.6832C12.2335 13.9332 11.9502 14.4166 11.9502 14.9666C11.9502 15.5166 12.2335 15.9999 12.6835 16.2499L18.9502 19.6332C19.2835 19.8166 19.6502 19.8999 20.0169 19.8999C20.3835 19.8999 20.7502 19.8166 21.0835 19.6332L27.3502 16.2499C27.8002 15.9999 28.0835 15.5166 28.0835 14.9666C28.0669 14.4166 27.7835 13.9332 27.3335 13.6832Z" fill="#6366F1"/>
<path opacity="0.4" d="M17.9001 20.7832L12.0667 17.8665C11.6167 17.6498 11.1001 17.6665 10.6667 17.9332C10.2334 18.1998 9.9834 18.6498 9.9834 19.1498V24.6665C9.9834 25.6165 10.5168 26.4832 11.3668 26.8998L17.2001 29.8165C17.4001 29.9165 17.6167 29.9665 17.8501 29.9665C18.1167 29.9665 18.3668 29.8998 18.6001 29.7498C19.0334 29.4832 19.2834 29.0332 19.2834 28.5332V23.0165C19.2834 22.0665 18.7667 21.2165 17.9001 20.7832Z" fill="#6366F1"/>
<path opacity="0.4" d="M29.3168 17.9332C28.8835 17.6665 28.3668 17.6498 27.9168 17.8665L22.0835 20.7832C21.2335 21.2165 20.7002 22.0665 20.7002 23.0165V28.5332C20.7002 29.0332 20.9502 29.4832 21.3835 29.7498C21.6168 29.8998 21.8668 29.9665 22.1335 29.9665C22.3502 29.9665 22.5669 29.9165 22.7835 29.8165L28.6169 26.8998C29.4669 26.4665 30.0002 25.6165 30.0002 24.6665V19.1498C30.0002 18.6498 29.7502 18.1998 29.3168 17.9332Z" fill="#6366F1"/>
</svg>
