<svg width="80" height="80" viewBox="0 0 80 80" fill="none" xmlns="http://www.w3.org/2000/svg">
<path fill-rule="evenodd" clip-rule="evenodd" d="M25.2608 9.70653C16.0304 11.848 9.16675 20.1115 9.16675 30.0001C9.16675 31.3808 8.04746 32.5001 6.66675 32.5001C5.28604 32.5001 4.16675 31.3808 4.16675 30.0001C4.16675 15.7194 15.7194 4.16675 30.0001 4.16675C30.9008 4.16675 31.7318 4.65123 32.1756 5.435C32.6193 6.21876 32.6072 7.18065 32.1438 7.95298L28.6439 13.7863C27.9335 14.9703 26.3978 15.3542 25.2139 14.6438C24.0299 13.9335 23.646 12.3978 24.3564 11.2139L25.2608 9.70653ZM73.3334 47.5001C74.7141 47.5001 75.8334 48.6194 75.8334 50.0001C75.8334 64.2808 64.2808 75.8334 50.0001 75.8334C49.0994 75.8334 48.2683 75.3489 47.8246 74.5652C47.3808 73.7814 47.393 72.8195 47.8563 72.0472L51.3563 66.2139C52.0667 65.0299 53.6023 64.646 54.7863 65.3563C55.9702 66.0667 56.3541 67.6024 55.6438 68.7863L54.7394 70.2936C63.9697 68.1522 70.8334 59.8887 70.8334 50.0001C70.8334 48.6194 71.9527 47.5001 73.3334 47.5001Z" fill="#6366F1"/>
<path d="M54.6665 27.3666L42.1332 20.6C40.7999 19.9 39.2332 19.9 37.8998 20.6L25.3665 27.3666C24.4665 27.8666 23.8999 28.8333 23.8999 29.9333C23.8999 31.0333 24.4665 32 25.3665 32.5L37.8998 39.2666C38.5665 39.6333 39.2999 39.7999 40.0332 39.7999C40.7666 39.7999 41.4998 39.6333 42.1665 39.2666L54.6999 32.5C55.5999 32 56.1665 31.0333 56.1665 29.9333C56.1332 28.8333 55.5665 27.8666 54.6665 27.3666Z" fill="#6366F1"/>
<path opacity="0.4" d="M35.7999 41.5664L24.1332 35.7331C23.2332 35.2998 22.1999 35.3331 21.3332 35.8664C20.4666 36.3998 19.9666 37.2998 19.9666 38.2998V49.3331C19.9666 51.2331 21.0333 52.9664 22.7333 53.7998L34.3999 59.6331C34.7999 59.8331 35.2332 59.9331 35.6999 59.9331C36.2332 59.9331 36.7333 59.7998 37.1999 59.4998C38.0666 58.9664 38.5666 58.0664 38.5666 57.0664V46.0331C38.5666 44.1331 37.5332 42.4331 35.7999 41.5664Z" fill="#6366F1"/>
<path opacity="0.4" d="M58.6332 35.8664C57.7665 35.3331 56.7332 35.2998 55.8332 35.7331L44.1665 41.5664C42.4665 42.4331 41.3999 44.1331 41.3999 46.0331V57.0664C41.3999 58.0664 41.8998 58.9664 42.7665 59.4998C43.2331 59.7998 43.7332 59.9331 44.2665 59.9331C44.6999 59.9331 45.1332 59.8331 45.5666 59.6331L57.2332 53.7998C58.9332 52.9331 59.9999 51.2331 59.9999 49.3331V38.2998C59.9999 37.2998 59.4998 36.3998 58.6332 35.8664Z" fill="#6366F1"/>
</svg>
