<svg width="28" height="28" viewBox="0 0 28 28" fill="none" xmlns="http://www.w3.org/2000/svg">
<path d="M25.6318 21.3849C25.6318 21.8049 25.5385 22.2366 25.3402 22.6566C25.1418 23.0766 24.8852 23.4733 24.5468 23.8466C23.9752 24.4766 23.3452 24.9316 22.6335 25.2233C21.9335 25.5149 21.1752 25.6666 20.3585 25.6666C19.1685 25.6666 17.8968 25.3866 16.5552 24.8149C15.2135 24.2433 13.8718 23.4733 12.5418 22.5049C11.2002 21.5249 9.9285 20.4399 8.71516 19.2383C7.5135 18.0249 6.4285 16.7533 5.46016 15.4233C4.5035 14.0933 3.7335 12.7633 3.1735 11.4449C2.6135 10.1149 2.3335 8.84325 2.3335 7.62992C2.3335 6.83659 2.4735 6.07825 2.7535 5.37825C3.0335 4.66659 3.47683 4.01325 4.09516 3.42992C4.84183 2.69492 5.6585 2.33325 6.52183 2.33325C6.8485 2.33325 7.17516 2.40325 7.46683 2.54325C7.77016 2.68325 8.0385 2.89325 8.2485 3.19659L10.9552 7.01159C11.1652 7.30325 11.3168 7.57159 11.4218 7.82825C11.5268 8.07325 11.5852 8.31825 11.5852 8.53992C11.5852 8.81992 11.5035 9.09992 11.3402 9.36825C11.1885 9.63659 10.9668 9.91659 10.6868 10.1966L9.80016 11.1183C9.67183 11.2466 9.6135 11.3983 9.6135 11.5849C9.6135 11.6783 9.62516 11.7599 9.6485 11.8533C9.6835 11.9466 9.7185 12.0166 9.74183 12.0866C9.95183 12.4716 10.3135 12.9733 10.8268 13.5799C11.3518 14.1866 11.9118 14.8049 12.5185 15.4233C13.1485 16.0416 13.7552 16.6133 14.3735 17.1383C14.9802 17.6516 15.4818 18.0016 15.8785 18.2116C15.9368 18.2349 16.0068 18.2699 16.0885 18.3049C16.1818 18.3399 16.2752 18.3516 16.3802 18.3516C16.5785 18.3516 16.7302 18.2816 16.8585 18.1533L17.7452 17.2783C18.0368 16.9866 18.3168 16.7649 18.5852 16.6249C18.8535 16.4616 19.1218 16.3799 19.4135 16.3799C19.6352 16.3799 19.8685 16.4266 20.1252 16.5316C20.3818 16.6366 20.6502 16.7883 20.9418 16.9866L24.8035 19.7283C25.1068 19.9383 25.3168 20.1833 25.4452 20.4749C25.5618 20.7666 25.6318 21.0583 25.6318 21.3849Z" stroke="#6366F1" stroke-width="1.5" stroke-miterlimit="10"/>
<path opacity="0.4" d="M21.5833 10.5001C21.5833 9.80008 21.035 8.72675 20.2183 7.85175C19.4717 7.04675 18.48 6.41675 17.5 6.41675" stroke="#6366F1" stroke-width="1.5" stroke-linecap="round" stroke-linejoin="round"/>
<path opacity="0.4" d="M25.6667 10.4999C25.6667 5.98492 22.015 2.33325 17.5 2.33325" stroke="#6366F1" stroke-width="1.5" stroke-linecap="round" stroke-linejoin="round"/>
</svg>
