<svg width="47" height="50" viewBox="0 0 47 50" fill="none" xmlns="http://www.w3.org/2000/svg">
<g opacity="0.4">
<path d="M12.75 35.375C12.75 38.255 15.12 40.625 18 40.625C20.88 40.625 23.25 38.255 23.25 35.375" stroke="#6366F1" stroke-width="1.5" stroke-miterlimit="10" stroke-linecap="round" stroke-linejoin="round"/>
<path d="M13.2142 17L7.78418 22.445" stroke="#6366F1" stroke-width="1.5" stroke-miterlimit="10" stroke-linecap="round" stroke-linejoin="round"/>
<path d="M22.7842 17L28.2142 22.445" stroke="#6366F1" stroke-width="1.5" stroke-miterlimit="10" stroke-linecap="round" stroke-linejoin="round"/>
</g>
<path d="M3 25.775C3 23 4.485 22.775 6.33 22.775H29.67C31.515 22.775 33 23 33 25.775C33 29 31.515 28.775 29.67 28.775H6.33C4.485 28.775 3 29 3 25.775Z" stroke="#6366F1" stroke-width="1.5"/>
<path d="M5.25 29L7.365 41.96C7.845 44.87 9 47 13.29 47H22.335C27 47 27.69 44.96 28.23 42.14L30.75 29" stroke="#6366F1" stroke-width="1.5" stroke-linecap="round"/>
<circle cx="37" cy="10" r="10" fill="#F43F5E"/>
<path d="M37.3516 8C37.8359 8 38.1536 7.8776 38.3047 7.63281C38.4245 7.42969 38.4896 7.00781 38.5 6.36719C38.5 6.26302 38.5 6.08594 38.5 5.83594V5.09375V4.78125H38.8125H40.1016H40.4141V5.09375V5.80469C40.4141 6.33594 40.388 6.80469 40.3359 7.21094C40.2891 7.61198 40.1979 7.9974 40.0625 8.36719C39.9271 8.73177 39.7448 9.03125 39.5156 9.26562C39.2917 9.5 38.9948 9.6849 38.625 9.82031C38.2604 9.95573 37.8281 10.0234 37.3281 10.0234C37 10.0234 36.6484 9.96615 36.2734 9.85156C36.362 10.7161 36.4062 11.7552 36.4062 12.9688V14.6562V14.9688H36.0938H34.7578H34.4453V14.6562V12.9688C34.4453 10.1615 34.1354 7.70052 33.5156 5.58594L33.4219 5.28906L33.7188 5.20312L35 4.8125L35.3281 4.71094L35.3984 5.03906L35.9766 7.63281C36.4193 7.8776 36.8776 8 37.3516 8Z" fill="white"/>
</svg>
