<svg width="24" height="24" viewBox="0 0 24 24" fill="none" xmlns="http://www.w3.org/2000/svg">
<path opacity="0.34" d="M5 9.99997H7C9 9.99997 10 8.99997 10 6.99997V4.99997C10 2.99997 9 1.99997 7 1.99997H5C3 1.99997 2 2.99997 2 4.99997V6.99997C2 8.99997 3 9.99997 5 9.99997Z" stroke="white" stroke-width="1.5" stroke-miterlimit="10" stroke-linecap="round" stroke-linejoin="round"/>
<path d="M17 9.99997H19C21 9.99997 22 8.99997 22 6.99997V4.99997C22 2.99997 21 1.99997 19 1.99997H17C15 1.99997 14 2.99997 14 4.99997V6.99997C14 8.99997 15 9.99997 17 9.99997Z" stroke="white" stroke-width="1.5" stroke-miterlimit="10" stroke-linecap="round" stroke-linejoin="round"/>
<path opacity="0.34" d="M17 22H19C21 22 22 21 22 19V17C22 15 21 14 19 14H17C15 14 14 15 14 17V19C14 21 15 22 17 22Z" stroke="white" stroke-width="1.5" stroke-miterlimit="10" stroke-linecap="round" stroke-linejoin="round"/>
<path d="M5 22H7C9 22 10 21 10 19V17C10 15 9 14 7 14H5C3 14 2 15 2 17V19C2 21 3 22 5 22Z" stroke="white" stroke-width="1.5" stroke-miterlimit="10" stroke-linecap="round" stroke-linejoin="round"/>
</svg>
