<svg width="80" height="80" viewBox="0 0 80 80" fill="none" xmlns="http://www.w3.org/2000/svg">
<path opacity="0.4" d="M73.3334 46.6667V56.6667C73.3334 62.2001 68.8667 66.6667 63.3334 66.6667H60.0001C60.0001 63.0001 57.0001 60.0001 53.3334 60.0001C49.6667 60.0001 46.6667 63.0001 46.6667 66.6667H33.3334C33.3334 63.0001 30.3334 60.0001 26.6667 60.0001C23.0001 60.0001 20.0001 63.0001 20.0001 66.6667H16.6667C11.1334 66.6667 6.66675 62.2001 6.66675 56.6667V46.6667H43.3334C47.0001 46.6667 50.0001 43.6667 50.0001 40.0001V16.6667H56.1335C58.5335 16.6667 60.7335 17.9668 61.9335 20.0334L67.6333 30.0001H63.3334C61.5001 30.0001 60.0001 31.5001 60.0001 33.3334V43.3334C60.0001 45.1667 61.5001 46.6667 63.3334 46.6667H73.3334Z" fill="#6366F1"/>
<path d="M26.6667 73.3333C30.3486 73.3333 33.3333 70.3486 33.3333 66.6667C33.3333 62.9848 30.3486 60 26.6667 60C22.9848 60 20 62.9848 20 66.6667C20 70.3486 22.9848 73.3333 26.6667 73.3333Z" fill="#6366F1"/>
<path d="M53.3334 73.3333C57.0153 73.3333 60.0001 70.3486 60.0001 66.6667C60.0001 62.9848 57.0153 60 53.3334 60C49.6515 60 46.6667 62.9848 46.6667 66.6667C46.6667 70.3486 49.6515 73.3333 53.3334 73.3333Z" fill="#6366F1"/>
<path d="M73.3333 41.7668V46.6667H63.3333C61.5 46.6667 60 45.1667 60 43.3333V33.3333C60 31.5 61.5 30 63.3333 30H67.6333L72.4666 38.4666C73.0333 39.4666 73.3333 40.6001 73.3333 41.7668Z" fill="#6366F1"/>
<path d="M46.6665 6.66675H19.9998C13.4998 6.66675 8.09989 11.3334 6.93323 17.5001H23.3332C24.6998 17.5001 25.8332 18.6334 25.8332 20.0001C25.8332 21.3667 24.6998 22.5001 23.3332 22.5001H6.6665V27.5001H16.6665C18.0332 27.5001 19.1665 28.6334 19.1665 30.0001C19.1665 31.3667 18.0332 32.5001 16.6665 32.5001H6.6665V37.5001H9.99984C11.3665 37.5001 12.4998 38.6334 12.4998 40.0001C12.4998 41.3667 11.3665 42.5001 9.99984 42.5001H6.6665V46.6667H43.3332C46.9998 46.6667 49.9998 43.6667 49.9998 40.0001V10.0001C49.9998 8.16675 48.4998 6.66675 46.6665 6.66675Z" fill="#6366F1"/>
<path d="M6.93331 17.5H3.33325C1.96659 17.5 0.833252 18.6333 0.833252 20C0.833252 21.3667 1.96659 22.5 3.33325 22.5H6.66659V20C6.66659 19.1333 6.76664 18.3 6.93331 17.5Z" fill="#6366F1"/>
<path d="M3.33325 27.5C1.96659 27.5 0.833252 28.6333 0.833252 30C0.833252 31.3667 1.96659 32.5 3.33325 32.5H6.66659V27.5H3.33325Z" fill="#6366F1"/>
<path d="M3.33325 37.5C1.96659 37.5 0.833252 38.6333 0.833252 40C0.833252 41.3667 1.96659 42.5 3.33325 42.5H6.66659V37.5H3.33325Z" fill="#6366F1"/>
</svg>
