<svg width="40" height="40" viewBox="0 0 40 40" fill="none" xmlns="http://www.w3.org/2000/svg">
<path opacity="0.4" d="M36.6666 23.3333V28.3333C36.6666 31.1 34.4333 33.3333 31.6666 33.3333H29.9999C29.9999 31.5 28.4999 30 26.6666 30C24.8333 30 23.3333 31.5 23.3333 33.3333H16.6666C16.6666 31.5 15.1666 30 13.3333 30C11.4999 30 9.99992 31.5 9.99992 33.3333H8.33325C5.56659 33.3333 3.33325 31.1 3.33325 28.3333V23.3333H21.6666C23.4999 23.3333 24.9999 21.8333 24.9999 20V8.33333H28.0666C29.2666 8.33333 30.3666 8.98334 30.9666 10.0167L33.8165 15H31.6666C30.7499 15 29.9999 15.75 29.9999 16.6667V21.6667C29.9999 22.5833 30.7499 23.3333 31.6666 23.3333H36.6666Z" fill="#6366F1"/>
<path d="M13.3333 36.6667C15.1743 36.6667 16.6667 35.1743 16.6667 33.3333C16.6667 31.4924 15.1743 30 13.3333 30C11.4924 30 10 31.4924 10 33.3333C10 35.1743 11.4924 36.6667 13.3333 36.6667Z" fill="#6366F1"/>
<path d="M26.6666 36.6667C28.5075 36.6667 29.9999 35.1743 29.9999 33.3333C29.9999 31.4924 28.5075 30 26.6666 30C24.8256 30 23.3333 31.4924 23.3333 33.3333C23.3333 35.1743 24.8256 36.6667 26.6666 36.6667Z" fill="#6366F1"/>
<path d="M36.6667 20.8834V23.3333H31.6667C30.75 23.3333 30 22.5833 30 21.6667V16.6667C30 15.75 30.75 15 31.6667 15H33.8166L36.2333 19.2333C36.5167 19.7333 36.6667 20.3 36.6667 20.8834Z" fill="#6366F1"/>
<path d="M23.3335 3.33329H10.0002C6.75016 3.33329 4.05019 5.66663 3.46686 8.74996H11.6668C12.3502 8.74996 12.9168 9.31663 12.9168 9.99996C12.9168 10.6833 12.3502 11.25 11.6668 11.25H3.3335V13.75H8.3335C9.01683 13.75 9.5835 14.3166 9.5835 15C9.5835 15.6833 9.01683 16.25 8.3335 16.25H3.3335V18.75H5.00016C5.6835 18.75 6.25016 19.3166 6.25016 20C6.25016 20.6833 5.6835 21.25 5.00016 21.25H3.3335V23.3333H21.6668C23.5002 23.3333 25.0002 21.8333 25.0002 20V4.99996C25.0002 4.08329 24.2502 3.33329 23.3335 3.33329Z" fill="#6366F1"/>
<path d="M3.46678 8.74997H1.66675C0.983415 8.74997 0.416748 9.31663 0.416748 9.99997C0.416748 10.6833 0.983415 11.25 1.66675 11.25H3.33341V9.99997C3.33341 9.56663 3.38344 9.14997 3.46678 8.74997Z" fill="#6366F1"/>
<path d="M1.66675 13.75C0.983415 13.75 0.416748 14.3166 0.416748 15C0.416748 15.6833 0.983415 16.25 1.66675 16.25H3.33341V13.75H1.66675Z" fill="#6366F1"/>
<path d="M1.66675 18.75C0.983415 18.75 0.416748 19.3166 0.416748 20C0.416748 20.6833 0.983415 21.25 1.66675 21.25H3.33341V18.75H1.66675Z" fill="#6366F1"/>
</svg>
