<svg width="28" height="28" viewBox="0 0 28 28" fill="none" xmlns="http://www.w3.org/2000/svg">
<path d="M10.5002 25.6666H17.5002C23.3335 25.6666 25.6668 23.3333 25.6668 17.4999V10.4999C25.6668 4.66659 23.3335 2.33325 17.5002 2.33325H10.5002C4.66683 2.33325 2.3335 4.66659 2.3335 10.4999V17.4999C2.3335 23.3333 4.66683 25.6666 10.5002 25.6666Z" stroke="#9CA3AF" stroke-width="1.5" stroke-linecap="round" stroke-linejoin="round"/>
<path d="M13.9998 18.0834C16.255 18.0834 18.0832 16.2552 18.0832 14.0001C18.0832 11.7449 16.255 9.91675 13.9998 9.91675C11.7447 9.91675 9.9165 11.7449 9.9165 14.0001C9.9165 16.2552 11.7447 18.0834 13.9998 18.0834Z" stroke="#9CA3AF" stroke-width="1.5" stroke-linecap="round" stroke-linejoin="round"/>
<path d="M20.5756 8.16659H20.5891" stroke="#9CA3AF" stroke-width="2" stroke-linecap="round" stroke-linejoin="round"/>
</svg>
