<svg width="40" height="40" viewBox="0 0 40 40" fill="none" xmlns="http://www.w3.org/2000/svg">
<path opacity="0.4" d="M31.6666 15C31.6666 17.4167 30.9499 19.6334 29.7166 21.4834C27.9166 24.15 25.0666 26.0334 21.7499 26.5167C21.1833 26.6167 20.5999 26.6667 19.9999 26.6667C19.3999 26.6667 18.8166 26.6167 18.2499 26.5167C14.9333 26.0334 12.0833 24.15 10.2833 21.4834C9.04992 19.6334 8.33325 17.4167 8.33325 15C8.33325 8.55002 13.5499 3.33335 19.9999 3.33335C26.4499 3.33335 31.6666 8.55002 31.6666 15Z" fill="#6366F1"/>
<path d="M35.4167 30.7832L32.6667 31.4332C32.0501 31.5832 31.5667 32.0499 31.4334 32.6665L30.85 35.1165C30.5334 36.4499 28.8334 36.8499 27.9501 35.7999L20.0001 26.6665L12.05 35.8165C11.1667 36.8665 9.46672 36.4665 9.15005 35.1332L8.56672 32.6832C8.41672 32.0665 7.93338 31.5832 7.33338 31.4499L4.58338 30.7999C3.31672 30.4999 2.86672 28.9165 3.78338 27.9998L10.2834 21.4999C12.0834 24.1665 14.9334 26.0499 18.2501 26.5332C18.8167 26.6332 19.4001 26.6832 20.0001 26.6832C20.6001 26.6832 21.1834 26.6332 21.7501 26.5332C25.0667 26.0499 27.9167 24.1665 29.7167 21.4999L36.2167 27.9998C37.1334 28.8998 36.6834 30.4832 35.4167 30.7832Z" fill="#6366F1"/>
<path d="M20.9668 9.96665L21.9501 11.9333C22.0835 12.2 22.4334 12.4666 22.7501 12.5166L24.5335 12.8166C25.6668 13 25.9334 13.8333 25.1168 14.65L23.7334 16.0333C23.5001 16.2666 23.3668 16.7167 23.4501 17.05L23.8501 18.7666C24.1668 20.1166 23.4501 20.65 22.2501 19.9333L20.5835 18.95C20.2835 18.7666 19.7835 18.7666 19.4834 18.95L17.8168 19.9333C16.6168 20.6333 15.9001 20.1166 16.2168 18.7666L16.6168 17.05C16.6835 16.7333 16.5668 16.2666 16.3335 16.0333L14.9501 14.65C14.1335 13.8333 14.4001 13.0166 15.5335 12.8166L17.3168 12.5166C17.6168 12.4666 17.9668 12.2 18.1001 11.9333L19.0835 9.96665C19.5668 8.89998 20.4335 8.89998 20.9668 9.96665Z" fill="#6366F1"/>
</svg>
