<svg width="80" height="80" viewBox="0 0 80 80" fill="none" xmlns="http://www.w3.org/2000/svg">
<path opacity="0.4" d="M63.3334 30.0001C63.3334 34.8334 61.9001 39.2668 59.4334 42.9668C55.8334 48.3001 50.1334 52.0668 43.5001 53.0334C42.3667 53.2334 41.2001 53.3334 40.0001 53.3334C38.8001 53.3334 37.6334 53.2334 36.5001 53.0334C29.8667 52.0668 24.1667 48.3001 20.5667 42.9668C18.1001 39.2668 16.6667 34.8334 16.6667 30.0001C16.6667 17.1001 27.1001 6.66675 40.0001 6.66675C52.9001 6.66675 63.3334 17.1001 63.3334 30.0001Z" fill="#6366F1"/>
<path d="M70.8334 61.5664L65.3334 62.8664C64.1001 63.1664 63.1334 64.0998 62.8668 65.3331L61.7001 70.2331C61.0668 72.8998 57.6668 73.6998 55.9001 71.5998L40.0001 53.3331L24.1001 71.6331C22.3334 73.7331 18.9334 72.9331 18.3001 70.2664L17.1334 65.3664C16.8334 64.1331 15.8668 63.1664 14.6668 62.8998L9.16677 61.5998C6.63343 60.9998 5.73343 57.8331 7.56677 55.9997L20.5668 42.9998C24.1668 48.3331 29.8668 52.0998 36.5001 53.0665C37.6334 53.2665 38.8001 53.3665 40.0001 53.3665C41.2001 53.3665 42.3668 53.2665 43.5001 53.0665C50.1334 52.0998 55.8334 48.3331 59.4334 42.9998L72.4334 55.9997C74.2668 57.7997 73.3668 60.9664 70.8334 61.5664Z" fill="#6366F1"/>
<path d="M41.9333 19.9333L43.9 23.8666C44.1667 24.3999 44.8667 24.9332 45.5 25.0332L49.0667 25.6332C51.3333 25.9999 51.8667 27.6666 50.2333 29.2999L47.4667 32.0665C47 32.5332 46.7333 33.4333 46.9 34.0999L47.7 37.5332C48.3333 40.2332 46.9 41.2999 44.5 39.8665L41.1667 37.8999C40.5667 37.5332 39.5667 37.5332 38.9667 37.8999L35.6333 39.8665C33.2333 41.2665 31.8 40.2332 32.4333 37.5332L33.2333 34.0999C33.3667 33.4666 33.1333 32.5332 32.6667 32.0665L29.9 29.2999C28.2667 27.6666 28.8 26.0332 31.0667 25.6332L34.6333 25.0332C35.2333 24.9332 35.9333 24.3999 36.2 23.8666L38.1667 19.9333C39.1333 17.7999 40.8667 17.7999 41.9333 19.9333Z" fill="#6366F1"/>
</svg>
