<svg width="80" height="80" viewBox="0 0 80 80" fill="none" xmlns="http://www.w3.org/2000/svg">
<path opacity="0.4" d="M64.3333 26.3999V43.5667C64.3333 53.8334 58.4666 58.2332 49.6666 58.2332H20.3666C18.8666 58.2332 17.4333 58.1001 16.0999 57.8001C15.2666 57.6668 14.4666 57.4334 13.7333 57.1667C8.7333 55.3001 5.69995 50.9667 5.69995 43.5667V26.3999C5.69995 16.1333 11.5666 11.7334 20.3666 11.7334H49.6666C57.1333 11.7334 62.5 14.9 63.9333 22.1334C64.1666 23.4667 64.3333 24.8333 64.3333 26.3999Z" fill="#6366F1"/>
<path d="M74.3332 36.4003V53.5671C74.3332 63.8338 68.4665 68.2336 59.6665 68.2336H30.3665C27.8998 68.2336 25.6665 67.9005 23.7332 67.1672C19.7665 65.7005 17.0665 62.6672 16.0999 57.8005C17.4332 58.1005 18.8665 58.2336 20.3665 58.2336H49.6665C58.4665 58.2336 64.3332 53.8338 64.3332 43.5671V26.4003C64.3332 24.8337 64.1999 23.4338 63.9332 22.1338C70.2665 23.4671 74.3332 27.9337 74.3332 36.4003Z" fill="#6366F1"/>
<path d="M35 43.7996C39.8601 43.7996 43.8 39.8596 43.8 34.9995C43.8 30.1394 39.8601 26.1995 35 26.1995C30.1399 26.1995 26.2 30.1394 26.2 34.9995C26.2 39.8596 30.1399 43.7996 35 43.7996Z" fill="#6366F1"/>
<path d="M15.9333 27.5C14.5667 27.5 13.4333 28.6333 13.4333 30V40C13.4333 41.3667 14.5667 42.5 15.9333 42.5C17.3 42.5 18.4333 41.3667 18.4333 40V30C18.4333 28.6333 17.3333 27.5 15.9333 27.5Z" fill="#6366F1"/>
<path d="M54.0332 27.5C52.6665 27.5 51.5332 28.6333 51.5332 30V40C51.5332 41.3667 52.6665 42.5 54.0332 42.5C55.3999 42.5 56.5332 41.3667 56.5332 40V30C56.5332 28.6333 55.4332 27.5 54.0332 27.5Z" fill="#6366F1"/>
</svg>
