<svg width="40" height="40" viewBox="0 0 40 40" fill="none" xmlns="http://www.w3.org/2000/svg">
<path opacity="0.4" d="M32.1665 13.2V21.7833C32.1665 26.9167 29.2332 29.1166 24.8332 29.1166H10.1832C9.43318 29.1166 8.71651 29.05 8.04985 28.9C7.63318 28.8334 7.23319 28.7167 6.86653 28.5834C4.36653 27.65 2.84985 25.4833 2.84985 21.7833V13.2C2.84985 8.06664 5.78318 5.8667 10.1832 5.8667H24.8332C28.5665 5.8667 31.2499 7.45002 31.9665 11.0667C32.0832 11.7334 32.1665 12.4166 32.1665 13.2Z" fill="#6366F1"/>
<path d="M37.1665 18.2002V26.7835C37.1665 31.9169 34.2332 34.1168 29.8331 34.1168H15.1831C13.9498 34.1168 12.8332 33.9502 11.8665 33.5836C9.88315 32.8502 8.53314 31.3336 8.0498 28.9002C8.71647 29.0502 9.43314 29.1168 10.1831 29.1168H24.8331C29.2332 29.1168 32.1665 26.9169 32.1665 21.7835V13.2002C32.1665 12.4168 32.0998 11.7169 31.9665 11.0669C35.1331 11.7336 37.1665 13.9668 37.1665 18.2002Z" fill="#6366F1"/>
<path d="M17.5001 21.8998C19.9302 21.8998 21.9001 19.9299 21.9001 17.4998C21.9001 15.0697 19.9302 13.0998 17.5001 13.0998C15.0701 13.0998 13.1001 15.0697 13.1001 17.4998C13.1001 19.9299 15.0701 21.8998 17.5001 21.8998Z" fill="#6366F1"/>
<path d="M7.9668 13.75C7.28346 13.75 6.7168 14.3167 6.7168 15V20C6.7168 20.6833 7.28346 21.25 7.9668 21.25C8.65013 21.25 9.2168 20.6833 9.2168 20V15C9.2168 14.3167 8.6668 13.75 7.9668 13.75Z" fill="#6366F1"/>
<path d="M27.0166 13.75C26.3333 13.75 25.7666 14.3167 25.7666 15V20C25.7666 20.6833 26.3333 21.25 27.0166 21.25C27.6999 21.25 28.2666 20.6833 28.2666 20V15C28.2666 14.3167 27.7166 13.75 27.0166 13.75Z" fill="#6366F1"/>
</svg>
