<svg width="32" height="32" viewBox="0 0 32 32" fill="none" xmlns="http://www.w3.org/2000/svg">
<path opacity="0.34" d="M22.6133 8.22667C25.2799 10.08 27.12 13.0267 27.4933 16.4267" stroke="#6366F1" stroke-width="1.5" stroke-linecap="round" stroke-linejoin="round"/>
<path opacity="0.34" d="M4.65332 16.4933C4.99999 13.1067 6.81332 10.16 9.45332 8.29333" stroke="#6366F1" stroke-width="1.5" stroke-linecap="round" stroke-linejoin="round"/>
<path opacity="0.34" d="M10.9199 27.92C12.4666 28.7067 14.2266 29.1467 16.0799 29.1467C17.8666 29.1467 19.5466 28.7467 21.0533 28.0133" stroke="#6366F1" stroke-width="1.5" stroke-linecap="round" stroke-linejoin="round"/>
<path d="M16.08 10.2667C18.1271 10.2667 19.7866 8.60713 19.7866 6.56C19.7866 4.51286 18.1271 2.85333 16.08 2.85333C14.0328 2.85333 12.3733 4.51286 12.3733 6.56C12.3733 8.60713 14.0328 10.2667 16.08 10.2667Z" stroke="#6366F1" stroke-width="1.5" stroke-linecap="round" stroke-linejoin="round"/>
<path d="M6.44007 26.56C8.4872 26.56 10.1467 24.9005 10.1467 22.8533C10.1467 20.8062 8.4872 19.1467 6.44007 19.1467C4.39293 19.1467 2.7334 20.8062 2.7334 22.8533C2.7334 24.9005 4.39293 26.56 6.44007 26.56Z" stroke="#6366F1" stroke-width="1.5" stroke-linecap="round" stroke-linejoin="round"/>
<path d="M25.5599 26.56C27.6071 26.56 29.2666 24.9005 29.2666 22.8533C29.2666 20.8062 27.6071 19.1467 25.5599 19.1467C23.5128 19.1467 21.8533 20.8062 21.8533 22.8533C21.8533 24.9005 23.5128 26.56 25.5599 26.56Z" stroke="#6366F1" stroke-width="1.5" stroke-linecap="round" stroke-linejoin="round"/>
</svg>
