<svg width="28" height="28" viewBox="0 0 28 28" fill="none" xmlns="http://www.w3.org/2000/svg">
<path d="M9.65756 14.8477L11.48 15.4579C11.9857 15.6262 12.3754 16.0154 12.544 16.5203L13.155 18.3401C13.6712 19.9075 15.8834 19.8759 16.368 18.3086L18.4222 11.7025C18.8225 10.3876 17.6111 9.17789 16.3153 9.57763L9.68916 11.6289C8.11953 12.1233 8.09846 14.3323 9.65756 14.8477Z" stroke="#9CA3AF" stroke-width="1.5" stroke-linecap="round" stroke-linejoin="round"/>
<path d="M14 25.5C7.64873 25.5 2.5 20.3513 2.5 14C2.5 7.64873 7.64873 2.5 14 2.5C20.3513 2.5 25.5 7.64873 25.5 14C25.5 20.3513 20.3513 25.5 14 25.5Z" stroke="#9CA3AF" stroke-width="1.5" stroke-linecap="round" stroke-linejoin="round"/>
</svg>
