<svg width="28" height="28" viewBox="0 0 28 28" fill="none" xmlns="http://www.w3.org/2000/svg">
<path d="M8.09683 24.0683C9.8235 25.0833 11.8418 25.6666 14.0002 25.6666C20.4402 25.6666 25.6668 20.4399 25.6668 13.9999C25.6668 7.55992 20.4402 2.33325 14.0002 2.33325C7.56016 2.33325 2.3335 7.55992 2.3335 13.9999C2.3335 16.1233 2.90519 18.1183 3.89686 19.8333L2.3335 25.6666L8.09683 24.0683Z" stroke="#9CA3AF" stroke-width="1.5" stroke-miterlimit="10" stroke-linecap="round" stroke-linejoin="round"/>
<path d="M19.8332 17.6983C19.8332 17.9083 19.7865 18.13 19.6815 18.34C19.5765 18.55 19.4482 18.7483 19.2849 18.935C18.9932 19.25 18.6782 19.4833 18.3282 19.6233C17.9782 19.775 17.5931 19.845 17.1848 19.845C16.5898 19.845 15.9481 19.705 15.2831 19.4133C14.6065 19.1216 13.9415 18.7366 13.2765 18.2583C12.5998 17.7683 11.9698 17.22 11.3632 16.625C10.7565 16.0183 10.2199 15.3766 9.72987 14.7116C9.25154 14.0466 8.86649 13.3816 8.58649 12.7166C8.30649 12.0516 8.1665 11.41 8.1665 10.8033C8.1665 10.4066 8.2365 10.0216 8.3765 9.67164C8.5165 9.30997 8.73818 8.98331 9.05318 8.69165C9.42652 8.31831 9.83482 8.14331 10.2665 8.14331C10.4298 8.14331 10.5932 8.17831 10.7449 8.24831C10.8965 8.31831 11.0365 8.4233 11.1415 8.57497L12.4949 10.4883C12.5999 10.64 12.6815 10.7683 12.7281 10.8966C12.7865 11.025 12.8098 11.1416 12.8098 11.2583C12.8098 11.3983 12.7632 11.5383 12.6815 11.6783C12.5998 11.8183 12.4949 11.9583 12.3549 12.0983L11.9115 12.565C11.8415 12.635 11.8182 12.705 11.8182 12.7983C11.8182 12.845 11.8299 12.8916 11.8415 12.9383C11.8649 12.985 11.8765 13.02 11.8882 13.055C11.9932 13.2533 12.1798 13.4983 12.4365 13.8016C12.7048 14.1049 12.9849 14.42 13.2882 14.7233C13.6032 15.0383 13.9065 15.3183 14.2215 15.5866C14.5248 15.8433 14.7815 16.0183 14.9799 16.1233C15.0149 16.135 15.0498 16.1583 15.0848 16.1699C15.1315 16.1933 15.1782 16.1933 15.2365 16.1933C15.3415 16.1933 15.4115 16.1583 15.4815 16.0883L15.9249 15.645C16.0765 15.4933 16.2165 15.3883 16.3448 15.3183C16.4848 15.2366 16.6132 15.19 16.7648 15.19C16.8815 15.19 16.9982 15.2133 17.1265 15.2716C17.2548 15.33 17.3949 15.4 17.5349 15.505L19.4715 16.8816C19.6232 16.9866 19.7281 17.115 19.7981 17.255C19.7981 17.395 19.8332 17.535 19.8332 17.6983Z" stroke="#9CA3AF" stroke-width="1.5" stroke-miterlimit="10"/>
</svg>
